# Blender 4.1.1
# www.blender.org
mtllib 11pallet.mtl
o bottom
v 0.550000 0.000000 -0.550000
v -0.550000 0.000000 -0.550000
v -0.550000 0.000000 0.550000
v 0.550000 0.000000 0.550000
v 0.550000 0.027000 -0.550000
v -0.550000 0.027000 -0.550000
v -0.550000 0.027000 0.550000
v 0.550000 0.027000 0.550000
vn -0.0000 -1.0000 -0.0000
vn -0.0000 1.0000 -0.0000
vn 1.0000 -0.0000 -0.0000
vn -0.0000 -0.0000 -1.0000
vn -0.0000 -0.0000 1.0000
vn -1.0000 -0.0000 -0.0000
vt 0.000000 0.000000
vt 0.765957 0.000000
vt 0.510638 0.000000
vt 0.255319 0.000000
s 0
f 1/1/1 4/2/1 3/3/1 2/4/1
f 5/1/2 6/4/2 7/3/2 8/2/2
f 4/2/3 1/1/3 5/1/3 8/2/3
f 1/1/4 2/4/4 6/4/4 5/1/4
f 3/3/5 4/2/5 8/2/5 7/3/5
f 2/4/6 3/3/6 7/3/6 6/4/6
o Sketch
v -0.359000 0.027000 -0.550000
v -0.550000 0.027000 -0.550000
v -0.550000 0.027000 -0.359000
v -0.359000 0.027000 -0.359000
v -0.550000 0.116000 -0.359000
v -0.359000 0.116000 -0.359000
v -0.359000 0.116000 -0.550000
v -0.550000 0.116000 -0.550000
v 0.359000 0.027000 -0.550000
v 0.550000 0.027000 -0.550000
v 0.550000 0.027000 -0.359000
v 0.359000 0.027000 -0.359000
v 0.550000 0.116000 -0.359000
v 0.359000 0.116000 -0.359000
v 0.359000 0.116000 -0.550000
v 0.550000 0.116000 -0.550000
v -0.359000 0.027000 0.550000
v -0.550000 0.027000 0.550000
v -0.550000 0.027000 0.359000
v -0.359000 0.027000 0.359000
v -0.550000 0.116000 0.359000
v -0.359000 0.116000 0.359000
v -0.359000 0.116000 0.550000
v -0.550000 0.116000 0.550000
v 0.359000 0.027000 0.550000
v 0.550000 0.027000 0.550000
v 0.550000 0.027000 0.359000
v 0.359000 0.027000 0.359000
v 0.550000 0.116000 0.359000
v 0.359000 0.116000 0.359000
v 0.359000 0.116000 0.550000
v 0.550000 0.116000 0.550000
vn -0.0000 -1.0000 -0.0000
vn -0.0000 1.0000 -0.0000
vn -1.0000 -0.0000 -0.0000
vn -0.0000 -0.0000 1.0000
vn -0.0000 -0.0000 -1.0000
vn 1.0000 -0.0000 -0.0000
vt 0.765957 0.000000
vt 0.510638 0.000000
vt 0.255319 0.000000
vt 0.000000 0.000000
s 0
f 12/5/7 11/6/7 10/7/7 9/8/7
f 14/5/8 15/8/8 16/7/8 13/6/8
f 10/7/9 11/6/9 13/6/9 16/7/9
f 11/6/10 12/5/10 14/5/10 13/6/10
f 9/8/11 10/7/11 16/7/11 15/8/11
f 12/5/12 9/8/12 15/8/12 14/5/12
f 20/5/7 17/8/7 18/7/7 19/6/7
f 22/5/8 21/6/8 24/7/8 23/8/8
f 18/7/12 24/7/12 21/6/12 19/6/12
f 19/6/10 21/6/10 22/5/10 20/5/10
f 17/8/11 23/8/11 24/7/11 18/7/11
f 20/5/9 22/5/9 23/8/9 17/8/9
f 28/5/7 25/8/7 26/7/7 27/6/7
f 30/5/8 29/6/8 32/7/8 31/8/8
f 26/7/9 32/7/9 29/6/9 27/6/9
f 27/6/11 29/6/11 30/5/11 28/5/11
f 25/8/10 31/8/10 32/7/10 26/7/10
f 28/5/12 30/5/12 31/8/12 25/8/12
f 36/5/7 35/6/7 34/7/7 33/8/7
f 38/5/8 39/8/8 40/7/8 37/6/8
f 34/7/12 35/6/12 37/6/12 40/7/12
f 35/6/11 36/5/11 38/5/11 37/6/11
f 33/8/10 34/7/10 40/7/10 39/8/10
f 36/5/9 33/8/9 39/8/9 38/5/9
o Sketch.002
v 0.096000 0.027000 -0.550000
v -0.096000 0.027000 -0.550000
v -0.096000 0.027000 -0.359000
v 0.096000 0.027000 -0.359000
v -0.096000 0.116000 -0.359000
v 0.096000 0.116000 -0.359000
v 0.096000 0.116000 -0.550000
v -0.096000 0.116000 -0.550000
v 0.096000 0.027000 0.550000
v -0.096000 0.027000 0.550000
v -0.096000 0.027000 0.359000
v 0.096000 0.027000 0.359000
v -0.096000 0.116000 0.359000
v 0.096000 0.116000 0.359000
v 0.096000 0.116000 0.550000
v -0.096000 0.116000 0.550000
vn -0.0000 -1.0000 -0.0000
vn -0.0000 1.0000 -0.0000
vn -1.0000 -0.0000 -0.0000
vn -0.0000 -0.0000 1.0000
vn -0.0000 -0.0000 -1.0000
vn 1.0000 -0.0000 -0.0000
vt 0.510638 0.000000
vt 0.255319 0.000000
vt 0.000000 0.000000
vt 0.765957 0.000000
s 0
f 43/9/13 42/10/13 41/11/13 44/12/13
f 45/9/14 46/12/14 47/11/14 48/10/14
f 42/10/15 43/9/15 45/9/15 48/10/15
f 43/9/16 44/12/16 46/12/16 45/9/16
f 41/11/17 42/10/17 48/10/17 47/11/17
f 44/12/18 41/11/18 47/11/18 46/12/18
f 51/9/13 52/12/13 49/11/13 50/10/13
f 53/9/14 56/10/14 55/11/14 54/12/14
f 50/10/15 56/10/15 53/9/15 51/9/15
f 51/9/17 53/9/17 54/12/17 52/12/17
f 49/11/16 55/11/16 56/10/16 50/10/16
f 52/12/18 54/12/18 55/11/18 49/11/18
o Sketch.003
v -0.358000 0.027000 -0.096000
v -0.550000 0.027000 -0.096000
v -0.550000 0.027000 0.096000
v -0.358000 0.027000 0.096000
v -0.096000 0.027000 -0.096000
v 0.000000 0.027000 -0.096000
v -0.000000 0.027000 0.096000
v -0.096000 0.027000 0.096000
v -0.000000 0.116000 0.096000
v -0.096000 0.116000 0.096000
v -0.096000 0.116000 -0.096000
v 0.000000 0.116000 -0.096000
v -0.550000 0.116000 0.096000
v -0.358000 0.116000 0.096000
v -0.358000 0.116000 -0.096000
v -0.550000 0.116000 -0.096000
v 0.358000 0.027000 -0.096000
v 0.550000 0.027000 -0.096000
v 0.550000 0.027000 0.096000
v 0.358000 0.027000 0.096000
v 0.096000 0.027000 -0.096000
v 0.096000 0.027000 0.096000
v 0.096000 0.116000 0.096000
v 0.096000 0.116000 -0.096000
v 0.550000 0.116000 0.096000
v 0.358000 0.116000 0.096000
v 0.358000 0.116000 -0.096000
v 0.550000 0.116000 -0.096000
vn -0.0000 -1.0000 -0.0000
vn -0.0000 1.0000 -0.0000
vn -1.0000 -0.0000 -0.0000
vn -0.0000 -0.0000 1.0000
vn 1.0000 -0.0000 -0.0000
vn -0.0000 -0.0000 -1.0000
vt 0.757895 0.000000
vt 0.884211 0.000000
vt 0.505263 0.000000
vt 0.631579 0.000000
vt 0.378947 0.000000
vt 0.252632 0.000000
vt 0.126316 0.000000
vt 0.000000 0.000000
s 0
f 63/13/19 64/14/19 61/15/19 62/16/19
f 60/17/19 59/18/19 58/19/19 57/20/19
f 65/13/20 68/16/20 67/15/20 66/14/20
f 70/17/20 71/20/20 72/19/20 69/18/20
f 58/19/21 59/18/21 69/18/21 72/19/21
f 59/18/22 60/17/22 70/17/22 69/18/22
f 63/13/23 62/16/23 68/16/23 65/13/23
f 64/14/22 63/13/22 65/13/22 66/14/22
f 57/20/24 58/19/24 72/19/24 71/20/24
f 60/17/23 57/20/23 71/20/23 70/17/23
f 62/16/24 61/15/24 67/15/24 68/16/24
f 61/15/21 64/14/21 66/14/21 67/15/21
f 63/13/19 62/16/19 77/15/19 78/14/19
f 76/17/19 73/20/19 74/19/19 75/18/19
f 65/13/20 79/14/20 80/15/20 68/16/20
f 82/17/20 81/18/20 84/19/20 83/20/20
f 74/19/23 84/19/23 81/18/23 75/18/23
f 75/18/22 81/18/22 82/17/22 76/17/22
f 78/14/22 79/14/22 65/13/22 63/13/22
f 73/20/24 83/20/24 84/19/24 74/19/24
f 76/17/21 82/17/21 83/20/21 73/20/21
f 62/16/24 68/16/24 80/15/24 77/15/24
f 77/15/23 80/15/23 79/14/23 78/14/23
o Sketch.005
v 0.550000 0.151000 -0.550000
v -0.550000 0.151000 -0.550000
v -0.550000 0.151000 0.550000
v 0.550000 0.151000 0.550000
v 0.550000 0.116000 -0.550000
v -0.550000 0.116000 -0.550000
v -0.550000 0.116000 0.550000
v 0.550000 0.116000 0.550000
vn -0.0000 1.0000 -0.0000
vn -0.0000 -1.0000 -0.0000
vn -0.0000 -0.0000 -1.0000
vn -1.0000 -0.0000 -0.0000
vn 1.0000 -0.0000 -0.0000
vn -0.0000 -0.0000 1.0000
vt 0.000000 0.000000
vt 0.255319 0.000000
vt 0.510638 0.000000
vt 0.765957 0.000000
s 0
f 85/21/25 86/22/25 87/23/25 88/24/25
f 89/21/26 92/24/26 91/23/26 90/22/26
f 86/22/27 85/21/27 89/21/27 90/22/27
f 87/23/28 86/22/28 90/22/28 91/23/28
f 85/21/29 88/24/29 92/24/29 89/21/29
f 88/24/30 87/23/30 91/23/30 92/24/30
